<svg xmlns="http://www.w3.org/2000/svg" version="1.1" xmlns:xlink="http://www.w3.org/1999/xlink" xmlns:svgjs="http://svgjs.dev/svgjs" width="2000" height="464" viewBox="0 0 2000 464"><g transform="matrix(1,0,0,1,-1.2100942572583335,-0.7237584836852591)"><svg viewBox="0 0 396 92" data-background-color="#ffffff" preserveAspectRatio="xMidYMid meet" height="464" width="2000" xmlns="http://www.w3.org/2000/svg" xmlns:xlink="http://www.w3.org/1999/xlink"><g id="tight-bounds" transform="matrix(1,0,0,1,0.23959867002494661,0.14350383728242377)"><svg viewBox="0 0 395.5199999999999 91.71298722635582" height="91.71298722635582" width="395.5199999999999"><g><svg viewBox="0 0 565.2307562804199 131.06543570663834" height="91.71298722635582" width="395.5199999999999"><g transform="matrix(1,0,0,1,169.7107562804199,18.113963979716303)"><svg viewBox="0 0 395.52 94.83750774720573" height="94.83750774720573" width="395.52"><g id="textblocktransform"><svg viewBox="0 0 395.52 94.83750774720573" height="94.83750774720573" width="395.52" id="textblock"><g><svg viewBox="0 0 395.52 94.83750774720573" height="94.83750774720573" width="395.52"><g transform="matrix(1,0,0,1,0,0)"><svg width="395.52" viewBox="-0.8500000238418579 -31.25 151.14756166934967 36" height="94.83750774720573" data-palette-color="#ffffff"><g transform="matrix(1,0,0,1,0,0)"><g><svg width="2.933166266966601" viewBox="1.9900000095367432 -36.86000061035156 28.760000228881836 37.369998931884766" height="3.8113055505954914" data-palette-color="#ffffff" id="scriptelement" x="145.10648157759272" y="-29.431162848005876"><path d="M30.26-25.91L22.89-25.91Q22.67-28.05 21.06-29.24 19.44-30.43 16.67-30.43L16.67-30.43Q14.79-30.43 13.49-29.91 12.2-29.39 11.51-28.46 10.83-27.54 10.83-26.37L10.83-26.37Q10.8-25.39 11.25-24.66 11.7-23.93 12.5-23.41 13.3-22.89 14.35-22.51 15.39-22.12 16.58-21.86L16.58-21.86 19.85-21.08Q22.23-20.54 24.22-19.66 26.21-18.77 27.66-17.47 29.12-16.18 29.93-14.42 30.74-12.66 30.75-10.39L30.75-10.39Q30.74-7.05 29.06-4.61 27.38-2.17 24.23-0.83 21.08 0.51 16.64 0.51L16.64 0.51Q12.23 0.51 8.98-0.83 5.72-2.18 3.9-4.84 2.08-7.49 1.99-11.42L1.99-11.42 9.43-11.42Q9.55-9.59 10.48-8.37 11.42-7.16 12.99-6.54 14.56-5.93 16.55-5.93L16.55-5.93Q18.5-5.93 19.95-6.5 21.4-7.07 22.19-8.08 22.99-9.09 22.99-10.4L22.99-10.4Q22.99-11.63 22.27-12.46 21.56-13.3 20.18-13.88 18.8-14.47 16.81-14.95L16.81-14.95 12.86-15.94Q8.26-17.06 5.59-19.44 2.93-21.82 2.95-25.85L2.95-25.85Q2.93-29.15 4.71-31.62 6.5-34.09 9.62-35.48 12.75-36.86 16.73-36.86L16.73-36.86Q20.77-36.86 23.8-35.48 26.83-34.09 28.52-31.62 30.2-29.15 30.26-25.91L30.26-25.91Z" opacity="1" transform="matrix(1,0,0,1,0,0)" fill="#ffffff" class="undefined-123" data-fill-palette-color="primary" id="p-123"></path></svg></g></g><path d="M142.849-27.526C142.849-29.582 144.516-31.25 146.573-31.25 148.63-31.25 150.298-29.582 150.298-27.526 150.298-25.469 148.63-23.801 146.573-23.801 144.516-23.801 142.849-25.469 142.849-27.526ZM146.573-24.354C148.325-24.354 149.745-25.774 149.745-27.526 149.745-29.277 148.325-30.697 146.573-30.697 144.821-30.697 143.401-29.277 143.401-27.526 143.401-25.774 144.821-24.354 146.573-24.354Z" fill="#ffffff" id="scriptcircle" data-fill-palette-color="primary"></path><path d="M39.55-21.4L39.55-21.4Q37.7-20.65 36.38-20.65 35.05-20.65 35.05-21.2L35.05-21.2Q35.05-21.55 36.52-21.6 38-21.65 38.65-21.95L38.65-21.95Q40.55-22.95 40.55-24.9L40.55-24.9Q40.55-25.9 40-27L40-27Q38.4-29.85 32.25-29.85L32.25-29.85Q28.7-29.85 25.15-28.78 21.6-27.7 19.2-25.48 16.8-23.25 16.8-21.35L16.8-21.35Q16.8-18.45 22.55-17.1L22.55-17.1 28.45-16Q32-15.35 33.75-14.2L33.75-14.2Q36.05-12.8 36.05-10.2L36.05-10.2Q36.05-9.15 35.7-7.95L35.7-7.95Q34.1-2.55 27.45 0.3L27.45 0.3Q21.9 2.75 14.35 2.75L14.35 2.75Q12.2 2.75 10.6 2.55L10.6 2.55Q12.2 3.45 14.8 4.1L14.8 4.1Q15 4.15 15 4.3L15 4.3Q15 4.75 13.95 4.75L13.95 4.75Q11.9 4.75 8.85 2.3L8.85 2.3Q4.7 1.65 2.65 0L2.65 0Q1.35-1.05 0.25-3.1-0.85-5.15-0.85-6.8-0.85-8.45-0.2-9.55L-0.2-9.55Q1.3-12.2 3.6-12.2L3.6-12.2Q5.35-12.2 5.65-9.25L5.65-9.25Q6.35-3.55 6.6-2.75L6.6-2.75Q7.35-0.3 9.15 1.4L9.15 1.4Q11.25 1.85 13.7 1.85L13.7 1.85Q19.1 1.85 24.3-0.3 29.5-2.45 31.8-6.4L31.8-6.4Q32.75-7.95 32.75-9.15L32.75-9.15Q32.75-11.5 28.6-12.8L28.6-12.8 19.8-14.8Q17.1-15.45 15.48-16.95 13.85-18.45 13.85-20.4L13.85-20.4Q13.85-23.4 17.6-26.4L17.6-26.4Q20.45-28.7 24.58-29.98 28.7-31.25 32.68-31.25 36.65-31.25 39.25-30.1L39.25-30.1Q42.6-28.55 42.6-25.58 42.6-22.6 39.55-21.4ZM7.35 0.9L7.35 0.9Q4.45-2.3 3.65-7.85L3.65-7.85Q3.2-11 2.8-11 2.4-11 2.05-10.78 1.7-10.55 1.35-9.8 1-9.05 1-7.85L1-7.85Q1-4 3.7-1.25L3.7-1.25Q5.05 0.15 7.35 0.9ZM54-14.95L54-14.95 54.7-15.1Q55.25-15.1 55.75-14.65 56.25-14.2 56.25-13.95 56.25-13.7 53.15-9.13 50.05-4.55 50.05-2.75L50.05-2.75Q50.05-2.6 50.1-2.45L50.1-2.45Q50.35-1.3 51.2-1.3L51.2-1.3Q53.8-1.3 60.7-9.9L60.7-9.9Q60.85-10.1 61.05-10.1 61.25-10.1 61.25-9.73 61.25-9.35 60.8-8.75L60.8-8.75Q54.4-0.2 51.05-0.2L51.05-0.2Q50.6-0.2 50.2-0.35L50.2-0.35Q48-1.2 48-3.65L48-3.65Q48-4.5 48.2-5.35L48.2-5.35 45.1-2.35Q42.15 0.25 40.82 0.25 39.5 0.25 38.3-0.6L38.3-0.6Q36.95-1.6 36.95-3.25L36.95-3.25Q36.95-6.9 42.05-11.98 47.15-17.05 51.4-17.05L51.4-17.05Q53.05-17.05 53.6-15.9L53.6-15.9Q53.75-15.5 53.85-15.23 53.95-14.95 54-14.95ZM39.05-2.65L39.05-2.65Q39.05-0.85 40.3-0.85L40.3-0.85Q43.2-0.85 48.2-7.2L48.2-7.2 53.5-14.5Q53.1-15.2 52.2-15.2L52.2-15.2Q49.15-15.2 44.1-10.48 39.05-5.75 39.05-2.65ZM71.05-16.1L71.05-16.1 78.25-16.2Q78.4-16.1 78.4-16.05L78.4-16.05Q78.4-15.6 72.17-14.8 65.95-14 65.45-13.85L65.45-13.85Q64.5-13 61.95-8.78 59.4-4.55 59.4-2.6L59.4-2.6Q59.4-0.75 61.95-0.75L61.95-0.75Q63.15-0.75 65.09-1.5 67.05-2.25 68.09-2.9L68.09-2.9Q70.9-4.65 74.09-8.05L74.09-8.05Q74.8-8.75 75.05-8.75L75.05-8.75Q75.2-8.75 75.2-8.45 75.2-8.15 74.45-7.25L74.45-7.25Q71.84-4.05 68.59-2.1L68.59-2.1Q64.7 0.3 61.15 0.3L61.15 0.3Q59.6 0.3 58.62-0.38 57.65-1.05 57.65-3.1 57.65-5.15 59.45-8.72 61.25-12.3 62.2-14.05L62.2-14.05Q61.5-13.9 61-13.9L61-13.9Q59.55-13.9 59.55-15.05L59.55-15.05Q59.55-15.9 60.75-16.25L60.75-16.25Q60.9-16.25 61.2-16.3L61.2-16.3 64.09-16.3Q65-17.45 66.15-18.95L66.15-18.95Q67.55-20.75 68.05-20.75 68.55-20.75 69.3-20.35 70.05-19.95 70.05-19.4 70.05-18.85 67.65-16.15L67.65-16.15Q68.95-16.1 71.05-16.1ZM84.69-0.2L84.69-0.2Q81.74-0.2 81.74-3.65L81.74-3.65Q81.74-5.6 83.12-7.98 84.49-10.35 86.49-13.55L86.49-13.55Q80.09-10.35 74.89-4.1L74.89-4.1Q71.99 0.25 71.49 0.25L71.49 0.25Q70.04 0.25 70.04-0.6L70.04-0.6Q70.04-1.05 70.64-2.2L70.64-2.2Q75.49-10.85 77.99-14.85L77.99-14.85Q83.94-24.4 86.39-25.2L86.39-25.2Q86.49-25.25 86.59-25.25L86.59-25.25Q87.24-25.25 87.49-24.2L87.49-24.2Q87.34-23.15 82.29-16.6L82.29-16.6Q77.04-9.95 76.34-7.9L76.34-7.9Q78.19-9.25 82.79-12.45L82.79-12.45Q87.74-15.9 89.34-15.9 90.94-15.9 90.94-14.65L90.94-14.65Q90.94-14.45 90.92-14.38 90.89-14.3 87.44-9.65 83.99-5 83.99-2.8L83.99-2.8Q83.99-1.65 84.84-1.65L84.84-1.65Q87.54-1.75 92.94-8.15L92.94-8.15Q93.39-8.6 93.62-8.6 93.84-8.6 93.84-8.3L93.84-8.3Q93.84-7.3 88.89-2.9L88.89-2.9Q85.79-0.2 84.69-0.2ZM102.49-20.4Q103.24-20.4 103.92-19.93 104.59-19.45 104.59-18.8 104.59-18.15 103.97-17.68 103.34-17.2 102.59-17.2 101.84-17.2 101.22-17.75 100.59-18.3 100.59-19L100.59-19Q100.59-20.4 102.49-20.4L102.49-20.4ZM93.44 0.55L93.44 0.55Q90.89 0.55 90.89-2.75L90.89-2.75Q90.89-5.45 93.84-10.23 96.79-15 98.59-15.05L98.59-15.05Q99.09-15.05 99.72-14.65 100.34-14.25 100.34-13.85L100.34-13.85Q100.09-13.5 99.74-13.08 99.39-12.65 98.99-12.15 98.59-11.65 97.89-10.73 97.19-9.8 96.54-8.95L96.54-8.95Q92.79-4.1 92.79-2.27 92.79-0.45 94.04-0.45L94.04-0.45Q95.09-0.45 96.89-1.6L96.89-1.6Q101.09-4.2 103.54-7.3L103.54-7.3Q104.44-8.45 104.77-8.45 105.09-8.45 105.09-8.05 105.09-7.65 103.94-6.45 102.79-5.25 102.12-4.55 101.44-3.85 101.19-3.63 100.94-3.4 100.27-2.78 99.59-2.15 99.24-1.9 98.89-1.65 98.24-1.15 97.59-0.65 97.09-0.43 96.59-0.2 95.94 0.1L95.94 0.1Q94.89 0.55 93.44 0.55ZM113.74-1.8L112.14-0.75Q110.69 0.1 108.56 0.1 106.44 0.1 105.31-1.3 104.19-2.7 103.39-5.75L103.39-5.75Q102.49-4.85 102.14-4.85L102.14-4.85Q101.89-4.85 101.89-5.2 101.89-5.55 102.14-5.8L102.14-5.8Q103.79-7.85 107.74-11.7L107.74-11.7 114.04-17.6Q116.74-20.15 117.24-20.15L117.24-20.15Q118.84-20.15 118.84-18.95L118.84-18.95Q118.84-18.35 118.36-17.78 117.89-17.2 117.66-16.88 117.44-16.55 117.19-16.25L117.19-16.25Q116.29-14.7 115.36-9.85 114.44-5 113.94-3.1L113.94-3.1Q118.09-3.15 122.49-8.5L122.49-8.5Q122.99-9 123.24-9 123.49-9 123.49-8.68 123.49-8.35 123.04-7.8L123.04-7.8Q120.14-4.4 117.64-3.05L117.64-3.05Q116.14-2.3 113.74-1.8L113.74-1.8ZM105.39-6.3L105.39-6.3Q105.39-4.6 106.51-3.53 107.64-2.45 109.04-2.45 110.44-2.45 111.19-3L111.19-3Q112.19-3.55 113.16-7.6 114.14-11.65 114.34-14.75L114.34-14.75 114.54-16.45Q111.79-14.4 108.66-11.15 105.54-7.9 105.44-6.85L105.44-6.85Q105.39-6.55 105.39-6.3ZM132.74-0.2L132.74-0.2Q129.78-0.2 129.78-3.65L129.78-3.65Q129.78-5.6 131.16-7.98 132.53-10.35 134.53-13.55L134.53-13.55Q128.13-10.35 122.94-4.1L122.94-4.1Q120.04 0.25 119.54 0.25L119.54 0.25Q118.09 0.25 118.09-0.6L118.09-0.6Q118.09-1.05 118.69-2.2L118.69-2.2Q123.54-10.85 126.04-14.85L126.04-14.85Q131.99-24.4 134.44-25.2L134.44-25.2Q134.53-25.25 134.63-25.25L134.63-25.25Q135.28-25.25 135.53-24.2L135.53-24.2Q135.38-23.15 130.34-16.6L130.34-16.6Q125.09-9.95 124.39-7.9L124.39-7.9Q126.23-9.25 130.84-12.45L130.84-12.45Q135.78-15.9 137.38-15.9 138.99-15.9 138.99-14.65L138.99-14.65Q138.99-14.45 138.96-14.38 138.94-14.3 135.49-9.65 132.03-5 132.03-2.8L132.03-2.8Q132.03-1.65 132.88-1.65L132.88-1.65Q135.59-1.75 140.99-8.15L140.99-8.15Q141.44-8.6 141.66-8.6 141.88-8.6 141.88-8.3L141.88-8.3Q141.88-7.3 136.94-2.9L136.94-2.9Q133.84-0.2 132.74-0.2Z" opacity="1" transform="matrix(1,0,0,1,0,0)" fill="#ffffff" class="wordmark-text-0" data-fill-palette-color="primary" id="text-0"></path></svg></g></svg></g></svg></g></svg></g><g><svg viewBox="0 0 147.32189680149057 131.06543570663834" height="131.06543570663834" width="147.32189680149057"><g><svg xmlns="http://www.w3.org/2000/svg" xmlns:xlink="http://www.w3.org/1999/xlink" version="1.1" x="0" y="0" viewBox="0.4000000059604645 0.2477772831916809 86.69200134277344 77.12583923339844" enable-background="new 0 0 87.142 77.878" xml:space="preserve" width="147.32189680149057" height="131.06543570663834" class="icon-icon-0" data-fill-palette-color="accent" id="icon-0"><g fill="#ffffff" data-fill-palette-color="accent"><g fill="#ffffff" data-fill-palette-color="accent"><g fill="#ffffff" data-fill-palette-color="accent"><path d="M87.092 38.679c0 0-0.016 0.184-0.048 0.537-0.019 0.176-0.098 0.392-0.162 0.65-0.106 0.24-0.208 0.535-0.4 0.823-0.698 1.21-2.308 2.542-4.586 3.712-4.583 2.345-11.761 4.17-20.459 5.302-8.706 1.115-18.997 1.533-29.952 0.671-5.473-0.44-11.12-1.193-16.739-2.572-2.802-0.71-5.608-1.56-8.282-2.814-1.332-0.631-2.638-1.364-3.802-2.333C1.526 41.71 0.438 40.363 0.4 38.677l0.049-0.582c0.024-0.188 0.096-0.408 0.147-0.61 0.136-0.393 0.289-0.76 0.514-1.085 0.41-0.678 0.96-1.227 1.532-1.724 1.161-0.981 2.465-1.724 3.796-2.367 2.672-1.276 5.477-2.148 8.279-2.879 5.618-1.431 11.274-2.195 16.753-2.655 5.482-0.444 10.806-0.602 15.84-0.443 5.041 0.142 9.796 0.516 14.153 1.12 8.712 1.173 15.863 3.134 20.449 5.472 2.276 1.181 3.883 2.521 4.578 3.737C87.222 37.868 87.042 38.704 87.092 38.679zM86.992 38.674c-0.05 0.023 0.118-0.781-0.611-1.949-0.691-1.175-2.291-2.48-4.562-3.621-4.568-2.298-11.758-4.016-20.44-4.974-4.347-0.467-9.08-0.785-14.087-0.851-5.011-0.059-10.297 0.023-15.741 0.484-5.44 0.451-11.046 1.228-16.604 2.577-2.768 0.698-5.537 1.537-8.135 2.753-1.293 0.61-2.548 1.318-3.628 2.216C2.11 36.202 1.232 37.354 1.2 38.677c0.014 1.305 0.896 2.499 1.963 3.39 1.076 0.909 2.33 1.628 3.622 2.249 2.595 1.238 5.363 2.099 8.131 2.818 5.556 1.401 11.172 2.189 16.618 2.661 5.449 0.474 10.748 0.596 15.762 0.523 5.017-0.073 9.757-0.389 14.107-0.897 8.696-0.999 15.86-2.853 20.43-5.144 2.27-1.152 3.867-2.465 4.555-3.646C87.113 39.463 86.942 38.657 86.992 38.674z" fill="#ffffff" data-fill-palette-color="accent"></path><path d="M54.308 32.951c0 0-0.359-0.637-1.031-1.83-0.686-1.185-1.688-2.927-3.046-5.094-1.357-2.166-3.048-4.772-5.137-7.656-2.089-2.88-4.554-6.064-7.557-9.251-1.502-1.59-3.141-3.18-4.965-4.666-1.828-1.449-3.859-2.909-6.231-3.558-1.17-0.283-2.479-0.285-3.458 0.471-0.949 0.71-1.484 1.95-1.72 3.196-0.473 2.539-0.215 5.253 0.236 7.926 0.941 5.371 2.75 10.757 4.894 16.074 2.158 5.317 4.718 10.575 7.546 15.669 2.84 5.1 5.949 10.04 9.325 14.677 3.388 4.616 6.978 9.008 11.013 12.64 2.013 1.793 4.169 3.441 6.52 4.366 1.161 0.452 2.426 0.639 3.456 0.237l0.341-0.149 0.4-0.267c0.139-0.089 0.191-0.183 0.293-0.269 0.094-0.079 0.184-0.179 0.265-0.301 0.364-0.429 0.586-0.983 0.793-1.527 0.701-2.28 0.564-4.762 0.317-7.064-0.284-2.319-0.724-4.551-1.253-6.667-1.065-4.235-2.403-8.027-3.685-11.343-1.282-3.319-2.567-6.148-3.668-8.454-1.096-2.309-2.027-4.09-2.658-5.306C54.652 33.596 54.308 32.951 54.308 32.951zM54.396 32.903c0 0 0.353 0.641 1.014 1.842 0.647 1.208 1.602 2.979 2.73 5.277 1.125 2.299 2.456 5.11 3.838 8.401 1.369 3.294 2.809 7.065 3.995 11.311 0.583 2.124 1.113 4.367 1.426 6.739 0.28 2.363 0.491 4.89-0.249 7.46-0.226 0.628-0.473 1.274-0.923 1.833-0.177 0.283-0.521 0.574-0.775 0.793l-0.396 0.273c-0.225 0.132-0.353 0.166-0.535 0.252-1.402 0.535-2.906 0.253-4.172-0.233-2.573-1.019-4.766-2.725-6.832-4.559-4.117-3.715-7.75-8.138-11.114-12.83-3.362-4.698-6.452-9.698-9.259-14.837-2.814-5.148-5.349-10.439-7.486-15.803-2.122-5.362-3.909-10.79-4.827-16.235-0.437-2.714-0.693-5.467-0.181-8.129 0.266-1.307 0.813-2.658 1.955-3.505 1.123-0.848 2.633-0.818 3.853-0.498 2.497 0.721 4.516 2.231 6.351 3.718 1.824 1.524 3.45 3.142 4.939 4.757 2.966 3.244 5.412 6.447 7.497 9.338 2.078 2.898 3.759 5.515 5.107 7.689 1.35 2.175 2.344 3.923 3.025 5.113C54.04 32.264 54.396 32.903 54.396 32.903z" fill="#ffffff" data-fill-palette-color="accent"></path><path d="M51.85 47.484c0 0 0.476-0.555 1.368-1.594 0.88-1.05 2.175-2.586 3.747-4.603 1.573-2.015 3.445-4.495 5.442-7.443 1.994-2.947 4.144-6.351 6.115-10.262 0.981-1.955 1.916-4.038 2.69-6.26 0.738-2.213 1.416-4.62 1.216-7.072-0.134-1.196-0.578-2.427-1.623-3.089-0.991-0.649-2.339-0.729-3.591-0.525-2.548 0.422-5.011 1.592-7.369 2.929-4.727 2.718-9.171 6.258-13.436 10.089-4.262 3.845-8.326 8.044-12.152 12.445-3.82 4.407-7.404 9.019-10.608 13.774-3.181 4.76-6.084 9.635-8.119 14.667-0.998 2.505-1.811 5.093-1.877 7.619-0.029 1.245 0.228 2.498 0.957 3.33l0.257 0.27 0.387 0.285c0.131 0.1 0.237 0.117 0.353 0.184 0.106 0.062 0.231 0.112 0.373 0.146 0.528 0.196 1.124 0.215 1.706 0.224 2.382-0.119 4.668-1.096 6.747-2.114 2.083-1.059 4.03-2.234 5.838-3.455 3.616-2.447 6.724-4.999 9.403-7.337 2.682-2.338 4.902-4.512 6.693-6.334 1.796-1.819 3.152-3.302 4.079-4.31C51.361 48.028 51.85 47.484 51.85 47.484zM51.925 47.55c0 0-0.482 0.55-1.385 1.582-0.915 1.021-2.253 2.523-4.027 4.368-1.777 1.842-3.964 4.053-6.585 6.476-2.629 2.412-5.681 5.053-9.267 7.617-1.798 1.273-3.725 2.537-5.847 3.641-2.126 1.07-4.429 2.132-7.096 2.313-0.667 0.002-1.359-0.009-2.038-0.242-0.326-0.07-0.718-0.293-1.01-0.458l-0.392-0.28c-0.201-0.167-0.277-0.275-0.42-0.417-0.982-1.135-1.23-2.645-1.206-4.001 0.079-2.767 0.934-5.41 1.952-7.978 2.086-5.139 5.002-10.063 8.264-14.827 3.268-4.765 6.91-9.374 10.785-13.771 3.873-4.399 7.984-8.592 12.295-12.431 4.315-3.825 8.806-7.359 13.61-10.081 2.401-1.338 4.901-2.518 7.578-2.947 1.319-0.196 2.776-0.144 3.962 0.641 1.18 0.766 1.668 2.195 1.784 3.451 0.175 2.593-0.555 5.006-1.326 7.239-0.809 2.234-1.775 4.316-2.785 6.267-2.036 3.895-4.211 7.289-6.216 10.235-2.014 2.943-3.9 5.416-5.483 7.426-1.583 2.011-2.887 3.543-3.772 4.589C52.404 46.997 51.925 47.55 51.925 47.55z" fill="#ffffff" data-fill-palette-color="accent"></path></g></g><circle stroke="#ffffff" stroke-miterlimit="10" cx="30.609" cy="3.02" r="2.5" fill="#ffffff" data-fill-palette-color="accent"></circle><circle stroke="#ffffff" stroke-miterlimit="10" cx="24.118" cy="71.052" r="2.5" fill="#ffffff" data-fill-palette-color="accent"></circle><circle stroke="#ffffff" stroke-miterlimit="10" cx="83.864" cy="43.154" r="2.5" fill="#ffffff" data-fill-palette-color="accent"></circle><circle stroke="#ffffff" stroke-miterlimit="10" cx="46.921" cy="41.058" r="2.5" fill="#ffffff" data-fill-palette-color="accent"></circle><circle stroke="#ffffff" stroke-miterlimit="10" cx="40.373" cy="39.129" r="2.5" fill="#ffffff" data-fill-palette-color="accent"></circle><circle stroke="#ffffff" stroke-miterlimit="10" cx="46.883" cy="34.472" r="2.5" fill="#ffffff" data-fill-palette-color="accent"></circle></g></svg></g></svg></g></svg></g><defs></defs></svg><rect width="395.5199999999999" height="91.71298722635582" fill="none" stroke="none" visibility="hidden"></rect></g></svg></g></svg>